<svg width="29" height="29" viewBox="0 0 29 29" fill="none" xmlns="http://www.w3.org/2000/svg">
<rect x="-0.5" y="0.5" width="28" height="28" transform="matrix(-1 0 0 1 28 0)" fill="#FA6166"/>
<path d="M24.4687 29H4.53122C2.03906 29 0 26.9609 0 24.4688V4.53128C0 2.03906 2.03905 0 4.53128 0H24.4687C26.9609 0 29 2.03906 29 4.53128V24.4688C29 26.9609 26.9609 29 24.4687 29ZM21.6118 10.3835L18.6165 7.38813L14.5 11.5047L10.3835 7.38819L7.38819 10.3835L11.5047 14.5L7.38814 18.6165L10.3834 21.6119L14.5 17.4953L18.6165 21.6119L21.6118 18.6166L17.4953 14.5L21.6118 10.3835Z" fill="#FCE77E"/>
<rect x="-0.5" y="0.5" width="28" height="28" transform="matrix(-1 0 0 1 28 0)" stroke="#FA6166"/>
</svg>
