<svg width="31" height="30" viewBox="0 0 31 30" fill="none" xmlns="http://www.w3.org/2000/svg">
<g clip-path="url(#clip0_47_57)">
<path d="M29.5442 14.7563C29.5442 22.6236 23.0789 29.0126 15.0893 29.0126C7.09985 29.0126 0.634521 22.6236 0.634521 14.7563C0.634521 6.88905 7.09985 0.5 15.0893 0.5C23.0789 0.5 29.5442 6.88905 29.5442 14.7563Z" fill="#FCE77E" stroke="#FA6166"/>
<path d="M20.0467 6.966C18.2284 6.966 16.5393 7.84024 15.5239 9.30586L15.3142 9.5689L15.1744 9.39298C14.1706 7.87287 12.4782 6.966 10.6412 6.966C7.50672 6.966 5.23169 9.21077 5.23169 12.3032C5.23169 16.8695 13.6091 23.5989 14.22 24.0834C14.5085 24.3554 14.8857 24.5049 15.2861 24.5049C15.6866 24.5049 16.064 24.3554 16.3528 24.083C16.9659 23.5953 25.4563 16.7593 25.4563 12.3033C25.4558 9.21077 23.1811 6.966 20.0467 6.966Z" fill="#FA6166"/>
</g>
<defs>
<clipPath id="clip0_47_57">
<rect width="29.9097" height="29.5127" fill="white" transform="translate(0.134521)"/>
</clipPath>
</defs>
</svg>
