<svg width="29" height="29" viewBox="0 0 29 29" fill="none" xmlns="http://www.w3.org/2000/svg">
<path d="M14.5005 0.5C22.2328 0.5 28.5005 6.76739 28.5005 14.4996C28.5005 22.2318 22.2329 28.5 14.5005 28.5C6.76807 28.5 0.500488 22.2317 0.500488 14.4996C0.500488 6.76749 6.76814 0.5 14.5005 0.5Z" fill="#FCE77E" stroke="#FA6166"/>
<path d="M20.8442 13.5942H15.4068V7.24883C15.4068 6.74771 15.0008 6.34259 14.5005 6.34259C14.0002 6.34259 13.5942 6.74771 13.5942 7.24883V14.4986C13.5942 14.9997 14.0002 15.4049 14.5005 15.4049H20.8442C21.3454 15.4049 21.7505 14.9997 21.7505 14.4986C21.7505 14.0002 21.3454 13.5942 20.8442 13.5942Z" fill="#FA6166"/>
</svg>
